<svg width="124" height="115" viewBox="0 0 124 115" fill="none" xmlns="http://www.w3.org/2000/svg">
<g clip-path="url(#clip0_3_226)">
<path d="M23.5145 104.198C26.5248 105.595 27.9248 106.842 29.0619 106.643C33.298 105.92 37.7155 105.418 41.6488 103.652C52.3426 99.2676 60.6989 91.8227 67.8763 82.9483C80.1404 67.8474 87.7529 50.4863 93.3416 32.023C93.9437 30.0487 94.6364 28.1843 95.349 26.1188C95.4596 26.0276 95.7716 25.9552 96.2848 25.9014C97.6159 28.8678 99.0376 31.9441 100.479 34.8193C101.346 36.3212 102.616 37.8606 104.146 38.8152C105.002 39.4025 107.126 39.4987 107.9 38.8601C108.896 38.0392 109.478 36.2661 109.819 34.8766C109.918 33.8707 109.213 32.7899 108.709 31.7278C104.928 23.7621 101.368 15.6139 97.3852 7.6294C93.9976 0.816985 90.5757 0.498451 85.2062 5.48046C79.6154 10.6449 73.8433 15.5894 68.2725 20.5527C66.5933 22.1221 64.9848 24.0027 63.175 25.8646C69.085 28.7496 69.0851 28.7496 88.3653 15.6216C86.3345 28.9342 81.7358 40.485 76.6438 51.8884C71.5518 63.2918 64.8386 73.6306 56.4843 83.106C47.7981 92.8551 36.8541 98.7394 23.5145 104.198Z" fill="#0D1927"/>
</g>
<defs>
<clipPath id="clip0_3_226">
<rect width="50.5724" height="118.958" fill="white" transform="matrix(-0.63621 -0.771516 -0.771516 0.63621 123.953 39.0174)"/>
</clipPath>
</defs>
</svg>
