<svg width="129" height="122" viewBox="0 0 129 122" fill="none" xmlns="http://www.w3.org/2000/svg">
<path fill-rule="evenodd" clip-rule="evenodd" d="M58.1798 44.9477C46.0196 34.9518 36.1662 23.0479 28.7619 9.17898C27.281 6.41659 23.8353 5.36287 21.0444 6.84374C18.282 8.32461 17.2281 11.7705 18.709 14.5614C26.8538 29.7403 37.6187 42.7834 50.9466 53.7475C53.3672 55.741 56.9838 55.3992 58.9773 52.9786C60.9708 50.5294 60.6005 46.9412 58.1798 44.9477Z" fill="#6DA5C8"/>
<path fill-rule="evenodd" clip-rule="evenodd" d="M51.6955 6.018C52.322 17.5232 52.8917 29.0284 53.6037 40.5336C53.803 43.6663 56.5084 46.0584 59.641 45.8591C62.7736 45.6597 65.1658 42.9543 64.9664 39.8217C64.2545 28.3449 63.6848 16.8683 63.0583 5.36306C62.8874 2.23899 60.182 -0.167437 57.0494 0.00912797C53.9168 0.185693 51.4961 2.87685 51.6955 6.018Z" fill="#6DA5C8"/>
<path fill-rule="evenodd" clip-rule="evenodd" d="M93.9744 8.3534C86.684 19.346 78.4256 29.4842 70.11 39.7363C68.1165 42.1855 68.4865 45.7739 70.9356 47.7389C73.3847 49.7324 76.9732 49.362 78.9382 46.9129C87.4816 36.4044 95.9681 25.9529 103.486 14.647C105.224 12.027 104.483 8.4958 101.863 6.75862C99.2714 5.02145 95.7116 5.7334 93.9744 8.3534Z" fill="#6DA5C8"/>
<path fill-rule="evenodd" clip-rule="evenodd" d="M122.215 49.2196C102.451 50.1024 81.4626 50.1309 61.6987 48.8778C58.5661 48.707 55.8607 51.0707 55.6613 54.2318C55.462 57.3644 57.8542 60.0698 60.9868 60.2691C81.1494 61.5222 102.565 61.4937 122.728 60.6109C125.86 60.4685 128.309 57.7916 128.167 54.659C128.024 51.5264 125.348 49.0772 122.215 49.2196Z" fill="#6DA5C8"/>
<path fill-rule="evenodd" clip-rule="evenodd" d="M50.9316 52.836C63.1203 67.7586 75.7364 82.3965 87.0422 98.0026C88.8933 100.537 92.4532 101.107 95.0163 99.2555C97.5508 97.4044 98.1202 93.8445 96.2691 91.3099C84.8209 75.533 72.0628 60.7244 59.7317 45.6309C57.7382 43.2102 54.1498 42.8401 51.7291 44.8336C49.28 46.8271 48.9382 50.4153 50.9316 52.836Z" fill="#6DA5C8"/>
<path fill-rule="evenodd" clip-rule="evenodd" d="M54.6228 57.166C57.8124 72.7151 58.6952 87.5808 58.923 103.329C58.9515 106.462 61.5431 108.968 64.6757 108.939C67.8368 108.882 70.3428 106.319 70.2858 103.158C70.058 86.6693 69.1184 71.1488 65.7864 54.8592C65.1314 51.7836 62.1412 49.79 59.0371 50.445C55.9614 51.0715 53.9678 54.0903 54.6228 57.166Z" fill="#6DA5C8"/>
<path fill-rule="evenodd" clip-rule="evenodd" d="M55.137 55.9135C45.91 74.3674 41.1541 94.8718 31.2722 112.927C29.7628 115.661 30.7878 119.135 33.5502 120.645C36.3126 122.154 39.7587 121.129 41.2681 118.395C51.207 100.225 56.0197 79.6073 65.332 61.011C66.7275 58.1917 65.5883 54.7743 62.7974 53.3504C59.9781 51.9549 56.5609 53.0941 55.137 55.9135Z" fill="#6DA5C8"/>
<path fill-rule="evenodd" clip-rule="evenodd" d="M60.2149 51.7256C41.8464 54.9721 23.5064 56.453 5.024 58.6458C1.89139 59.016 -0.329917 61.8355 0.0403008 64.9681C0.410518 68.1007 3.23013 70.322 6.36274 69.9518C25.0445 67.7589 43.6123 66.2211 62.2086 62.9461C65.2842 62.3765 67.3631 59.4147 66.822 56.3391C66.2525 53.2349 63.319 51.156 60.2149 51.7256Z" fill="#6DA5C8"/>
<path fill-rule="evenodd" clip-rule="evenodd" d="M72.9962 43.0698C69.2086 42.8989 65.6203 42.6425 61.9181 42.1015C58.7855 41.6458 55.9091 43.8102 55.4535 46.9143C54.9978 50.0184 57.162 52.9233 60.2662 53.3789C64.367 53.977 68.3256 54.2617 72.4834 54.4326C75.6161 54.575 78.2929 52.1542 78.4068 48.9932C78.5492 45.8605 76.1288 43.2122 72.9962 43.0698Z" fill="#6DA5C8"/>
</svg>
