<svg width="166" height="113" viewBox="0 0 166 113" fill="none" xmlns="http://www.w3.org/2000/svg">
<path d="M80.8957 0C54.4962 0 29.4612 3.81141 3.58405 8.17C2.3446 8.17 1.29928 8.31414 0.424682 9.16855C-0.440062 10.0133 0.211795 14.2031 0.656989 15.1599C2.59716 19.3297 4.48076 23.9006 6.09297 28.2319C7.82538 32.886 6.48351 38.187 8.23019 42.5748C11.2941 50.2714 14.4548 58.1504 16.5932 66.177C18.9601 75.0609 20.387 83.7632 22.4474 92.7294C24.2801 100.705 29.1143 108.822 37.4079 111.747C47.7151 115.383 60.9202 110.089 71.2318 108.661C91.186 105.898 111.111 103.365 130.935 99.7193C142.991 97.5023 157.552 95.58 164.154 83.9694C166.728 79.4443 165.874 73.6063 165.827 68.628C165.763 61.8493 165.146 54.9529 164.526 48.203C163.446 36.4457 162.492 24.6406 159.555 13.1628C157.831 6.42772 148.385 0.816999 141.388 0.816999C121.234 0.816999 101.075 0 80.8957 0Z" fill="#E2AC97"/>
</svg>
