<svg width="120" height="127" viewBox="0 0 120 127" fill="none" xmlns="http://www.w3.org/2000/svg">
<path d="M1.22222 80.6667C0.487013 94.7276 1 108.925 1 123C1 129.051 12.1843 125 16.5 125C19.6098 125 22.5508 123.711 25.5 123.056C28.8299 122.316 28 120.888 28 117.5C28 107.668 28.1092 97.8303 28 88C27.8747 76.7256 26.8115 65.5316 27 54.2222C27.1159 47.2675 30.9638 42.349 32.7778 36C35.2997 27.1733 39.5768 27 47.5 27C52.2296 27 55.3197 28.3047 59.5 30.5556C63.7912 32.8662 68.3675 33.1172 70.5556 36.5556C79.4267 50.4959 86 66.4439 86 83.1111C86 90.5543 86.7914 97.8545 89 105C89.8219 107.659 90.9024 124.939 92 125C98.9935 125.389 106.325 123 113.556 123C119.036 123 118 121.399 118 116.5V107.444C118 99.5779 119.299 91.8603 119 83.7778C118.829 79.1677 116.588 73.0741 115 68.7778C111.07 58.1435 107.324 46.5844 105.222 35.4444C104.302 30.5696 99.405 27.3835 95.7778 24.3333C88.7551 18.4279 81.5586 12.7232 74.6667 6.66667C67.314 0.205196 60.8596 0 51.5556 0C45.8615 0 41.0195 0.828993 35.5 2.05556C31.6801 2.90443 27.3233 6 23.5 6C14.5366 6 10.8683 19.5185 9 26.2222C6.4801 35.2642 5.92237 45.3955 4.77778 54.6667C3.69549 63.4332 1.68811 71.7566 1.22222 80.6667Z" fill="#F7DD59"/>
<path d="M38.5278 96.5C38.2828 105.321 38.5 114.176 38.5 123C38.5 124.809 46.4799 124 48.2778 124C52.4613 124 56.6507 123.934 60.8333 124C64.5062 124.058 67.9225 124 71.5 124C74.3218 124 77.0953 123.5 80 123.5C82.8144 123.5 82 121.61 82 119.25L82 119.073C82.0005 116.731 82.0009 114.773 81.2778 112.5C79.5421 107.045 80.8155 101.676 79.9722 96.1945C79.1611 90.9222 76.9121 85.0863 75.25 80.0278C73.602 75.0123 71.0109 69.3901 70.5 64.1111C70.2098 61.1129 69.9535 57.2632 68.8889 54.3889C67.7889 51.4191 65.6212 48.9358 63.0278 47.25C59.2281 44.7802 57.086 44.9854 53.0278 46C49.9559 46.768 45.6782 49.8218 43.5 52C40.848 54.6521 39.2968 56.4621 38.6111 60.5C37.1388 69.1703 39.362 77.697 39.5 86.3889C39.5532 89.7412 38.6223 93.0988 38.5278 96.5Z" fill="#F7DD59"/>
</svg>
