<svg width="4221" height="1443" viewBox="0 0 4221 1443" fill="none" xmlns="http://www.w3.org/2000/svg">
<path d="M156.319 127.485C68.3264 130.798 0.332152 157.298 0.332152 294.217C0.332152 388.728 28.3292 643.138 0.332152 1133.4C0.332152 1279.15 -23.6658 1343.19 336.304 1346.5C1132.24 1318.9 2084.16 1314.48 3792.01 1346.66C3952 1354.23 3952 1234.98 3952 1128.98C3939.6 898.905 3926 921.392 3946.63 351.634C3928 127.296 3880 127.296 3728.02 127.296C2188.15 150.673 1464.21 64.5466 156.319 127.485Z" fill="#F7E9DB"/>
<path d="M3755.73 73.4674C3848.44 9.79319 3907.68 25.8454 3996.95 72.7553C4035.62 133.641 4024.55 186.982 3986.46 250.261C3958.44 296.814 3979.95 306.497 3920.58 333.028C3863.72 358.443 3818.2 304.986 3774.32 280.332C3696.94 236.851 3694.56 115.472 3755.73 73.4674Z" fill="#E38431"/>
<path d="M3884.46 1255.97C3991.54 1213.91 4012.57 1204.36 4075.68 1255.97C4116.53 1289.38 4171.8 1337.21 4205.71 1366.79C4239.61 1396.36 4205.71 1394.24 4182.76 1393.59C4159.81 1392.95 3611.02 1393.59 3611.02 1393.59C3584.25 1393.59 3600.02 1374.96 3618.14 1366.79C3691.91 1335.31 3813.43 1283.86 3884.46 1255.97Z" fill="#CC988A"/>
<path d="M3269.18 1170.89C3355.06 1098.87 3335.67 1098.87 3388.3 1076.7C3440.94 1054.54 3476.95 1073.93 3507.43 1098.87C3537.9 1123.8 3565.6 1145.96 3593.31 1170.89C3621.01 1195.83 3625.16 1198.6 3665.33 1195.83C3697.4 1181.98 3681.95 1195.83 3706.89 1170.89C3729.05 1157.04 3726.28 1145.96 3753.98 1143.19C3781.69 1140.42 3787.23 1145.96 3812.16 1170.89C3833.3 1192.04 3983.95 1326.75 4069.8 1406.06C4091.96 1424.38 4091.96 1441 4069.8 1442.38C4047.63 1443.77 2956.14 1442.38 2956.14 1442.38C2940.9 1441 2917.35 1442.38 2931.2 1417.32C3011.22 1361.46 3202.03 1227.22 3269.18 1170.89Z" fill="#5C7457"/>
</svg>
