<svg width="147" height="116" viewBox="0 0 147 116" fill="none" xmlns="http://www.w3.org/2000/svg">
<path d="M49.8889 4.1111C63.0039 -1.25412 79.1364 0.999993 93 0.999993C102.019 0.999993 108.258 10.7105 115.778 15.2222C123.427 19.8119 130.013 25.8095 135.556 32.7778C139.774 38.0805 146 43.811 146 51.0555C146 60.3025 146.227 69.9348 141 78C135.889 85.8851 130.283 93.7036 124.944 101.444C118.059 111.428 107.681 113.193 96.4444 114.5C80.451 116.36 61.9982 116.39 46.1111 114C35.0557 112.337 23.0917 109.806 15 101.556C9.94643 96.4029 3.57762 86.8772 1.55555 79.9444C-1.01137 71.1436 0.379508 56.9288 3.55555 48.5555C6.96411 39.5694 12.5245 30.1395 19.2222 23.2222C27.9728 14.1847 38.455 8.78862 49.8889 4.1111Z" fill="#F0A3A3"/>
</svg>
