<svg width="198" height="124" viewBox="0 0 198 124" fill="none" xmlns="http://www.w3.org/2000/svg">
<path d="M175.995 20C185.646 20 186.995 6.71272 186.995 0C191.995 0 192.704 2 194.995 2C197.986 2 196.995 5.16239 196.995 7.5C196.995 13.9718 195.995 20.1801 195.995 27C195.995 39.4178 175.764 39 167.495 39C164.099 39 159.172 39.49 155.94 40.5C152.173 41.6773 146.005 39.3246 142.995 42C140.33 44.3693 138.995 43.521 138.995 47.5C138.995 49.3022 140.38 51.4171 141.218 53C146.61 63.1859 144.622 72.5658 142.94 83.5C140.218 101.189 118.409 95 106.495 95C102.804 95 96.4149 91.29 93.0509 89.9444C88.7829 88.2372 84.4928 87.4321 80.7731 85C74.8721 81.1416 68.9915 76.9337 62.9954 73.7778C58.2835 71.2978 51.4478 69.1383 46.4398 72C41.4217 74.8675 41.0452 80.9104 38.4954 85.5C36.4981 89.0951 35.874 93.0462 34.9954 97C34.2758 100.238 32.9954 102.987 32.9954 106.389C32.9954 107.808 33.3316 109.674 32.7731 111C30.1565 117.214 28.1091 123 19.9954 123C13.8248 123 9.2048 123.768 4.49536 120C0.806854 117.049 -1.63377 109.368 4.99536 109C7.72911 108.848 15.3714 102.058 15.9398 99.5C16.9118 95.1261 16.9954 88.9157 16.9954 84.5C16.9954 72.1389 19.5191 59.9509 29.2176 51.2222C34.4611 46.5031 40.7968 47 47.4954 47C53.272 47 58.9004 46.2303 63.9954 48.7778C68.5774 51.0688 73.365 53.1848 77.9954 55.5C82.9738 57.9892 85.7118 63.0788 89.9954 66.4444C94.0149 69.6027 98.5423 72.1794 102.773 75C106.183 77.2733 108.822 78.2196 112.995 78C115.086 77.8899 120.696 77.4997 122.495 76.5L122.519 76.4868C128.832 72.9794 130.995 71.7778 130.995 63.7778C130.995 61.6567 132.212 54.3736 130.495 53C129.328 52.0665 126.831 46.3736 126.218 44.7778C123.368 37.3687 121.057 22.0499 127.606 15.5C132.471 10.6356 148.516 14.9779 153.995 16.5C161.365 18.5472 168.291 20 175.995 20Z" fill="#C1CBBF"/>
</svg>
