<svg viewBox="0 0 585 32" preserveAspectRatio="none" fill="none" xmlns="http://www.w3.org/2000/svg">
<path d="M560.752 0.455894C554.219 1.12256 553.952 1.25589 558.885 1.38923C561.819 1.52256 564.752 2.18923 565.552 2.85589C566.219 3.52256 567.952 4.32256 569.419 4.72256C570.885 4.98923 567.952 4.98923 562.752 4.45589C544.752 2.85589 457.019 3.65589 440.885 5.52256C436.352 6.05589 432.352 6.05589 432.085 5.65589C431.419 4.58923 281.819 4.85589 258.085 6.05589C248.885 6.45589 226.752 7.25589 208.752 7.65589C190.752 8.18923 173.952 8.72256 171.419 8.98923C168.885 9.25589 153.819 9.65589 138.085 9.78923C122.352 9.92256 96.4853 10.8559 80.752 11.7892C48.0853 13.9226 16.8853 14.4559 10.0853 13.2559C6.75196 12.5892 6.21862 12.7226 8.08529 13.5226C10.352 14.5892 9.95196 14.8559 6.08529 14.8559C2.61862 14.9892 1.95196 14.5892 3.41862 13.6559C5.15196 12.5892 5.15196 12.3226 3.28529 12.3226C0.751956 12.3226 -0.71471 17.7892 0.351957 23.3892C1.68529 30.1892 5.01862 31.1226 29.0186 31.5226C47.152 31.9226 48.0853 31.7892 35.152 31.1226C26.6186 30.7226 19.2853 30.0559 19.0186 29.6559C18.6186 29.2559 24.0853 29.2559 31.152 29.5226C38.2186 29.7892 57.952 29.2559 74.752 28.4559C91.6853 27.5226 114.485 26.5892 125.419 26.3226C175.419 24.9892 272.752 22.9892 305.685 22.7226C325.685 22.4559 342.085 21.9226 342.085 21.5226C342.085 19.6559 346.485 18.9892 348.352 20.5892C349.685 21.6559 350.485 21.7892 351.152 20.7226C351.819 19.6559 355.685 19.5226 363.419 20.0559L374.752 20.9892L363.419 21.7892C351.019 22.5892 400.752 23.9226 425.419 23.3892C458.485 22.7226 554.352 22.9892 555.685 23.7892C556.352 24.3226 559.819 24.5892 563.152 24.5892C572.885 24.3226 567.819 26.8559 557.419 27.3892L548.085 27.7892L558.752 28.1892C566.352 28.4559 568.485 28.8559 566.085 29.6559L562.752 30.7226L566.485 30.8559C571.019 30.9892 577.152 25.5226 575.952 22.4559C575.419 21.1226 575.819 20.3226 577.152 20.3226C579.685 20.3226 586.085 15.1226 583.552 14.9892C582.219 14.9892 582.085 14.5892 583.285 13.1226C584.485 11.7892 584.485 10.9892 583.419 10.3226C582.352 9.65589 582.352 8.98923 583.419 7.65589C584.485 6.32256 583.819 5.78923 580.219 5.12256C577.552 4.58923 574.752 3.52256 573.819 2.58923C571.152 -0.0774403 568.752 -0.47744 560.752 0.455894ZM533.419 8.32256C537.019 9.12256 539.019 8.98923 539.552 8.05589C540.085 7.25589 541.152 7.12256 542.219 7.78923C543.152 8.32256 547.952 8.85589 552.752 8.72256C559.685 8.58923 560.485 8.85589 556.752 9.65589C554.219 10.1892 552.752 10.7226 553.419 10.9892C555.152 11.3892 547.685 13.2559 543.419 13.5226C541.019 13.5226 540.619 13.2559 541.952 12.4559C543.152 11.6559 543.285 10.9892 542.219 10.4559C541.419 9.92256 540.085 9.92256 539.285 10.3226C538.619 10.8559 534.485 11.3892 530.219 11.3892C523.819 11.6559 522.619 11.2559 522.485 9.25589C522.219 6.58923 525.152 6.32256 533.419 8.32256ZM322.485 9.78923C321.552 10.7226 313.285 11.3892 298.219 11.5226C285.685 11.6559 275.952 11.2559 276.485 10.7226C277.419 9.78923 285.152 9.25589 310.085 8.58923C320.619 8.32256 323.685 8.58923 322.485 9.78923ZM343.419 9.52256C343.419 10.1892 339.019 10.7226 333.819 10.7226C327.285 10.8559 324.752 10.4559 326.085 9.65589C328.619 8.05589 343.419 7.92256 343.419 9.52256ZM411.419 9.52256L418.752 10.4559L412.485 11.5226C409.152 12.0559 403.152 12.1892 399.152 11.7892C393.019 11.1226 370.752 10.4559 370.752 10.9892C370.752 11.1226 368.485 11.3892 365.819 11.6559C363.019 11.9226 360.752 11.6559 360.752 10.8559C360.752 10.1892 357.819 9.92256 353.552 10.4559C348.885 10.9892 346.085 10.8559 345.552 9.78923C344.485 8.05589 398.619 7.92256 411.419 9.52256ZM508.752 9.65589C508.752 10.3226 506.752 10.9892 504.485 10.8559C500.352 10.7226 500.219 10.7226 503.419 9.65589C508.085 8.18923 508.752 8.18923 508.752 9.65589ZM518.085 9.65589C518.085 10.3226 517.419 10.9892 516.619 10.9892C515.952 10.9892 515.685 10.3226 516.085 9.65589C516.485 8.85589 517.152 8.32256 517.552 8.32256C517.819 8.32256 518.085 8.85589 518.085 9.65589ZM266.085 11.2559C266.085 11.9226 263.419 12.3226 260.085 12.3226C256.752 12.3226 254.085 11.7892 254.085 11.1226C254.085 10.4559 256.752 10.0559 260.085 10.1892C263.419 10.1892 266.085 10.7226 266.085 11.2559ZM273.152 10.5892C272.219 10.8559 270.619 10.8559 269.819 10.5892C268.885 10.1892 269.552 9.92256 271.419 9.92256C273.285 9.92256 273.952 10.1892 273.152 10.5892ZM446.085 10.9892C446.085 12.3226 427.685 11.6559 426.219 10.3226C425.952 9.92256 430.219 9.65589 435.819 9.65589C441.819 9.65589 446.085 10.1892 446.085 10.9892ZM499.019 10.4559C498.619 10.8559 497.419 10.9892 496.485 10.5892C495.419 10.1892 495.819 9.78923 497.285 9.78923C498.752 9.65589 499.552 10.0559 499.019 10.4559ZM246.085 12.3226C246.085 13.1226 239.285 13.6559 227.685 13.6559C217.552 13.6559 202.619 13.9226 194.619 14.3226C186.619 14.5892 158.219 15.5226 131.419 16.3226C78.8853 17.9226 49.4186 19.6559 59.4186 20.4559C62.752 20.5892 55.8186 21.2559 44.0853 21.6559C32.352 22.1892 21.552 22.8559 20.0853 23.2559C18.6186 23.6559 18.2186 23.6559 19.152 23.3892C21.8186 22.4559 19.552 20.3226 15.952 20.3226C14.0853 20.3226 12.8853 19.7892 13.2853 19.2559C13.6853 18.5892 18.0853 18.3226 23.0186 18.4559C32.0853 18.8559 73.152 17.1226 90.752 15.6559C105.419 14.4559 120.352 13.7892 154.619 12.9892C172.219 12.5892 186.885 12.0559 187.152 11.7892C188.352 10.4559 246.085 10.9892 246.085 12.3226ZM251.819 11.9226C250.885 12.1892 249.285 12.1892 248.485 11.9226C247.552 11.5226 248.219 11.2559 250.085 11.2559C251.952 11.2559 252.619 11.5226 251.819 11.9226ZM348.752 14.1892C366.219 14.3226 380.219 14.7226 379.952 15.2559C379.552 15.7892 381.285 15.5226 383.552 14.7226C386.752 13.6559 388.485 13.6559 390.219 14.8559C391.819 15.7892 399.685 16.3226 410.352 16.4559C426.485 16.5892 429.952 18.0559 416.752 19.1226C414.219 19.2559 417.152 19.9226 423.419 20.3226C433.552 21.1226 432.885 21.1226 416.752 21.1226C406.885 21.1226 401.285 20.9892 404.485 20.7226C407.552 20.4559 410.085 19.6559 410.085 18.8559C410.085 17.2559 395.819 17.2559 394.752 18.9892C394.219 19.9226 393.019 19.9226 391.285 18.9892C388.752 17.5226 234.885 18.3226 232.619 19.7892C232.085 20.0559 222.085 20.5892 210.485 20.9892C198.885 21.3892 187.685 21.9226 185.419 22.1892C183.285 22.5892 151.419 23.1226 114.752 23.3892C78.0853 23.6559 53.152 23.5226 59.4186 22.8559C91.4186 20.0559 161.152 17.7892 227.419 17.5226C241.552 17.5226 249.419 16.9892 247.419 16.3226C244.485 15.3892 244.485 15.2559 246.885 15.1226C248.352 14.9892 250.085 15.3892 250.485 15.9226C251.819 17.1226 289.285 16.3226 290.085 14.9892C290.885 13.6559 308.752 12.5892 313.952 13.5226C315.685 13.7892 331.419 14.0559 348.752 14.1892ZM284.352 14.4559C283.952 14.8559 282.752 14.9892 281.819 14.5892C280.752 14.1892 281.152 13.7892 282.619 13.7892C284.085 13.6559 284.885 14.0559 284.352 14.4559ZM466.752 16.3226C467.285 17.1226 465.819 17.6559 463.152 17.5226C459.552 17.5226 459.152 17.2559 461.419 16.3226C465.019 14.7226 465.819 14.7226 466.752 16.3226ZM454.085 17.6559C451.685 19.1226 451.285 19.1226 461.419 19.9226C475.019 20.9892 471.285 21.6559 452.619 21.3892C442.752 21.2559 438.485 20.9892 443.152 20.7226C454.752 20.0559 453.419 17.9226 441.152 17.2559L430.752 16.8559L443.419 16.5892C451.952 16.4559 455.419 16.7226 454.085 17.6559ZM508.352 19.7892C507.952 20.1892 506.752 20.3226 505.819 19.9226C504.752 19.5226 505.152 19.1226 506.619 19.1226C508.085 18.9892 508.885 19.3892 508.352 19.7892ZM390.485 21.2559C389.552 21.5226 387.952 21.5226 387.152 21.2559C386.219 20.8559 386.885 20.5892 388.752 20.5892C390.619 20.5892 391.285 20.8559 390.485 21.2559ZM47.0186 23.7892C46.6186 24.1892 45.4186 24.3226 44.4853 23.9226C43.4186 23.5226 43.8186 23.1226 45.2853 23.1226C46.752 22.9892 47.552 23.3892 47.0186 23.7892Z" fill="black"/>
</svg>
