<svg width="4279" height="1235" viewBox="0 0 4279 1235" fill="none" xmlns="http://www.w3.org/2000/svg">
<path d="M156.332 65.2691C68.3322 68.2691 0.33218 92.2691 0.33218 216.269C0.33218 301.863 28.3315 532.269 0.33218 976.269C0.33218 1108.27 -23.6678 1166.27 336.332 1169.27C1132.33 1144.27 2084.33 1140.27 3792.33 1169.41C3952.33 1176.27 3952.33 1068.27 3952.33 972.269C3939.93 763.903 3926.33 784.269 3946.96 268.269C3928.33 65.0982 3880.33 65.0982 3728.33 65.0982C2188.33 86.2691 1464.33 8.26915 156.332 65.2691Z" fill="#F7E9DB"/>
<path d="M3794.46 964.846C3949.07 904.126 3979.45 890.327 4070.56 964.846C4129.54 1013.09 4209.35 1082.15 4258.3 1124.86C4307.26 1167.56 4258.3 1164.5 4225.17 1163.56C4192.04 1162.63 3399.64 1163.56 3399.64 1163.56C3360.99 1163.56 3383.76 1136.65 3409.93 1124.86C3516.44 1079.41 3691.9 1005.12 3794.46 964.846Z" fill="#CC988A"/>
<path d="M2906.07 842.012C3030.07 738.012 3002.07 738.012 3078.07 706.012C3154.07 674.012 3206.07 702.012 3250.07 738.012C3294.07 774.012 3334.07 806.012 3374.07 842.012C3414.07 878.012 3420.07 882.012 3478.07 878.012C3524.37 858.012 3502.07 878.012 3538.07 842.012C3570.07 822.012 3566.07 806.012 3606.07 802.012C3646.07 798.012 3654.07 806.012 3690.07 842.012C3720.6 872.542 3938.12 1067.05 4062.07 1181.56C4094.07 1208.01 4094.07 1232.01 4062.07 1234.01C4030.07 1236.01 2454.07 1234.01 2454.07 1234.01C2432.07 1232.01 2398.07 1234.01 2418.07 1197.82C2533.61 1117.16 2809.11 923.334 2906.07 842.012Z" fill="#5C7457"/>
<path d="M3835.28 50.7882C3899.37 6.77005 3940.32 17.867 4002.03 50.2959C4028.77 92.3865 4021.11 129.261 3994.78 173.006C3975.42 205.188 3990.28 211.882 3949.24 230.223C3909.93 247.792 3878.46 210.837 3848.13 193.794C3794.64 163.735 3792.99 79.8263 3835.28 50.7882Z" fill="#E38431"/>
</svg>
