<svg width="4056" height="1230" viewBox="0 0 4056 1230" fill="none" xmlns="http://www.w3.org/2000/svg">
<path d="M156.332 125.269C68.3322 128.269 0.33218 152.269 0.33218 276.269C0.33218 361.863 28.3315 592.269 0.33218 1036.27C0.33218 1168.27 -23.6678 1226.27 336.332 1229.27C1132.33 1204.27 2084.33 1200.27 3792.33 1229.41C3952.33 1236.27 3952.33 1128.27 3952.33 1032.27C3939.93 823.903 3926.33 844.269 3946.96 328.269C3928.33 125.098 3880.33 125.098 3728.33 125.098C2188.33 146.269 1464.33 68.2691 156.332 125.269Z" fill="#F7E9DB"/>
<path d="M3755.73 73.4674C3848.44 9.79319 3907.68 25.8454 3996.95 72.7553C4035.62 133.641 4024.55 186.982 3986.46 250.261C3958.44 296.814 3979.95 306.497 3920.58 333.028C3863.72 358.443 3818.2 304.986 3774.32 280.332C3696.94 236.851 3694.56 115.472 3755.73 73.4674Z" fill="#E38431"/>
</svg>
