<svg width="718" height="898" viewBox="0 0 718 898" fill="none" xmlns="http://www.w3.org/2000/svg">
<path d="M27.5694 37.5696C12.0505 39.9067 0.0585804 58.6041 0.0585804 155.207C0.0585804 221.89 4.99631 401.389 0.0585804 747.291C0.0585804 850.126 -4.17386 895.312 59.3127 897.649C199.688 878.172 367.575 875.056 668.784 897.758C697 903.102 697 818.964 697 744.174C694.813 581.845 692.415 597.712 696.053 195.718C692.767 37.4364 684.303 37.4364 657.497 37.4364C385.916 53.9298 258.237 -6.83668 27.5694 37.5696Z" fill="#F7E9DB"/>
<path d="M617.358 24.6063C648.411 3.27998 668.251 8.6563 698.15 24.3677C711.104 44.7601 707.393 62.6254 694.638 83.8192C685.254 99.4113 692.456 102.654 672.573 111.54C653.528 120.052 638.282 102.148 623.587 93.8909C597.669 79.3278 596.873 38.6749 617.358 24.6063Z" fill="#E38431"/>
</svg>
